# xmcd
#
# Track frame offsets: 
#        150
#        16988
#        38025
#        60743
#        72653
#        93425
#        114588
#        139050
#        162898
#        181370
#
# Disc length: 2676 seconds
#
# Revision: 0
# Processed by: cddbd v1.5.2PL0 Copyright (c) Steve Scherf et al.
# Submitted via: ExactAudioCopyFreeDBPlugin 1.0
#
DISCID=870a720a
DTITLE=พงษ์เทพ กระโดนชำนาญ - คนที่เรารัก
DYEAR=1900
DGENRE=
TTITLE0=หนุ่มก่อสร้าง
TTITLE1=ต้นขับขี่
TTITLE2=แหล่ 17 พ.ค. 35
TTITLE3=หยุดพักสายตา
TTITLE4="เพื่อน" เพอร์คัสชั่นหมายเลข 1
TTITLE5=ขอบฟ้า-ขอบใจ
TTITLE6=เปียกปอน
TTITLE7=ฝัน (ตังเกภาคค่ำ)
TTITLE8=ลมรำเพย
TTITLE9=คนที่เรารัก
EXTD=
EXTT0=
EXTT1=
EXTT2=
EXTT3=
EXTT4=
EXTT5=
EXTT6=
EXTT7=
EXTT8=
EXTT9=
PLAYORDER=
